<?xml version="1.0" encoding="UTF-8"?>
<svg xmlns="http://www.w3.org/2000/svg" xmlns:xlink="http://www.w3.org/1999/xlink" width="375pt" height="374.999991pt" viewBox="0 0 375 374.999991" version="1.2">
<defs>
<clipPath id="clip1">
  <path d="M 69.417969 69.417969 L 305.667969 69.417969 L 305.667969 305.667969 L 69.417969 305.667969 Z M 69.417969 69.417969 "/>
</clipPath>
<clipPath id="clip2">
  <path d="M 92.75 92.75 L 282.5 92.75 L 282.5 282.5 L 92.75 282.5 Z M 92.75 92.75 "/>
</clipPath>
<clipPath id="clip3">
  <path d="M 110.925781 110.496094 L 263.925781 110.496094 L 263.925781 263.496094 L 110.925781 263.496094 Z M 110.925781 110.496094 "/>
</clipPath>
<clipPath id="clip4">
  <path d="M 126.242188 125.8125 L 248.492188 125.8125 L 248.492188 248.0625 L 126.242188 248.0625 Z M 126.242188 125.8125 "/>
</clipPath>
<clipPath id="clip5">
  <path d="M 137.832031 137.832031 L 236.832031 137.832031 L 236.832031 236.832031 L 137.832031 236.832031 Z M 137.832031 137.832031 "/>
</clipPath>
<clipPath id="clip6">
  <path d="M 145.992188 146.421875 L 228.492188 146.421875 L 228.492188 228.921875 L 145.992188 228.921875 Z M 145.992188 146.421875 "/>
</clipPath>
<clipPath id="clip7">
  <path d="M 153.578125 153.578125 L 221.078125 153.578125 L 221.078125 221.078125 L 153.578125 221.078125 Z M 153.578125 153.578125 "/>
</clipPath>
<clipPath id="clip8">
  <path d="M 159.359375 158.929688 L 215.609375 158.929688 L 215.609375 215.179688 L 159.359375 215.179688 Z M 159.359375 158.929688 "/>
</clipPath>
<clipPath id="clip9">
  <path d="M 164.328125 164.328125 L 210.078125 164.328125 L 210.078125 210.078125 L 164.328125 210.078125 Z M 164.328125 164.328125 "/>
</clipPath>
<clipPath id="clip10">
  <path d="M 168.3125 167.882812 L 206.5625 167.882812 L 206.5625 206.132812 L 168.3125 206.132812 Z M 168.3125 167.882812 "/>
</clipPath>
</defs>
<g id="surface1">
<g clip-path="url(#clip1)" clip-rule="nonzero">
<path style=" stroke:none;fill-rule:nonzero;fill:rgb(54.899597%,32.159424%,100%);fill-opacity:1;" d="M 187.574219 69.417969 C 122.320312 69.417969 69.417969 122.320312 69.417969 187.574219 C 69.417969 252.828125 122.320312 305.726562 187.574219 305.726562 C 252.828125 305.726562 305.726562 252.828125 305.726562 187.574219 C 305.726562 122.320312 252.828125 69.417969 187.574219 69.417969 Z M 187.574219 281.113281 C 135.910156 281.113281 94.035156 239.234375 94.035156 187.574219 C 94.035156 135.914062 135.910156 94.035156 187.574219 94.035156 C 239.234375 94.035156 281.113281 135.914062 281.113281 187.574219 C 281.113281 239.234375 239.234375 281.113281 187.574219 281.113281 Z M 187.574219 281.113281 "/>
</g>
<g clip-path="url(#clip2)" clip-rule="nonzero">
<path style=" stroke:none;fill-rule:nonzero;fill:rgb(54.899597%,32.159424%,100%);fill-opacity:1;" d="M 187.648438 92.75 C 135.238281 92.75 92.75 135.238281 92.75 187.648438 C 92.75 240.058594 135.238281 282.546875 187.648438 282.546875 C 240.058594 282.546875 282.546875 240.058594 282.546875 187.648438 C 282.546875 135.238281 240.058594 92.75 187.648438 92.75 Z M 187.648438 262.777344 C 146.152344 262.777344 112.519531 229.140625 112.519531 187.648438 C 112.519531 146.15625 146.152344 112.519531 187.648438 112.519531 C 229.140625 112.519531 262.777344 146.15625 262.777344 187.648438 C 262.777344 229.140625 229.140625 262.777344 187.648438 262.777344 Z M 187.648438 262.777344 "/>
</g>
<g clip-path="url(#clip3)" clip-rule="nonzero">
<path style=" stroke:none;fill-rule:nonzero;fill:rgb(54.899597%,32.159424%,100%);fill-opacity:1;" d="M 187.445312 110.496094 C 145.1875 110.496094 110.925781 144.757812 110.925781 187.015625 C 110.925781 229.277344 145.1875 263.535156 187.445312 263.535156 C 229.707031 263.535156 263.964844 229.277344 263.964844 187.015625 C 263.964844 144.757812 229.707031 110.496094 187.445312 110.496094 Z M 187.445312 247.59375 C 153.988281 247.59375 126.867188 220.472656 126.867188 187.015625 C 126.867188 153.558594 153.988281 126.4375 187.445312 126.4375 C 220.902344 126.4375 248.023438 153.5625 248.023438 187.015625 C 248.023438 220.472656 220.902344 247.59375 187.445312 247.59375 Z M 187.445312 247.59375 "/>
</g>
<g clip-path="url(#clip4)" clip-rule="nonzero">
<path style=" stroke:none;fill-rule:nonzero;fill:rgb(54.899597%,32.159424%,100%);fill-opacity:1;" d="M 187.382812 125.8125 C 153.613281 125.8125 126.242188 153.1875 126.242188 186.953125 C 126.242188 220.71875 153.613281 248.09375 187.382812 248.09375 C 221.148438 248.09375 248.523438 220.71875 248.523438 186.953125 C 248.523438 153.1875 221.148438 125.8125 187.382812 125.8125 Z M 187.382812 235.355469 C 160.648438 235.355469 138.976562 213.683594 138.976562 186.953125 C 138.976562 160.21875 160.648438 138.550781 187.382812 138.550781 C 214.113281 138.550781 235.785156 160.21875 235.785156 186.953125 C 235.785156 213.683594 214.113281 235.355469 187.382812 235.355469 Z M 187.382812 235.355469 "/>
</g>
<g clip-path="url(#clip5)" clip-rule="nonzero">
<path style=" stroke:none;fill-rule:nonzero;fill:rgb(54.899597%,32.159424%,100%);fill-opacity:1;" d="M 187.347656 137.832031 C 160.003906 137.832031 137.832031 160.003906 137.832031 187.347656 C 137.832031 214.691406 160.003906 236.859375 187.347656 236.859375 C 214.691406 236.859375 236.859375 214.691406 236.859375 187.347656 C 236.859375 160.003906 214.691406 137.832031 187.347656 137.832031 Z M 187.347656 226.546875 C 165.699219 226.546875 148.148438 208.996094 148.148438 187.347656 C 148.148438 165.699219 165.699219 148.148438 187.347656 148.148438 C 208.996094 148.148438 226.542969 165.699219 226.542969 187.347656 C 226.542969 208.996094 208.996094 226.546875 187.347656 226.546875 Z M 187.347656 226.546875 "/>
</g>
<g clip-path="url(#clip6)" clip-rule="nonzero">
<path style=" stroke:none;fill-rule:nonzero;fill:rgb(54.899597%,32.159424%,100%);fill-opacity:1;" d="M 187.253906 146.421875 C 164.464844 146.421875 145.992188 164.894531 145.992188 187.683594 C 145.992188 210.46875 164.464844 228.941406 187.253906 228.941406 C 210.039062 228.941406 228.511719 210.46875 228.511719 187.683594 C 228.511719 164.894531 210.039062 146.421875 187.253906 146.421875 Z M 187.253906 220.347656 C 169.210938 220.347656 154.589844 205.722656 154.589844 187.683594 C 154.589844 169.640625 169.210938 155.019531 187.253906 155.019531 C 205.292969 155.019531 219.917969 169.644531 219.917969 187.683594 C 219.917969 205.722656 205.292969 220.347656 187.253906 220.347656 Z M 187.253906 220.347656 "/>
</g>
<g clip-path="url(#clip7)" clip-rule="nonzero">
<path style=" stroke:none;fill-rule:nonzero;fill:rgb(54.899597%,32.159424%,100%);fill-opacity:1;" d="M 187.335938 153.578125 C 168.691406 153.578125 153.578125 168.691406 153.578125 187.335938 C 153.578125 205.980469 168.691406 221.09375 187.335938 221.09375 C 205.980469 221.09375 221.09375 205.980469 221.09375 187.335938 C 221.09375 168.691406 205.980469 153.578125 187.335938 153.578125 Z M 187.335938 214.0625 C 172.578125 214.0625 160.609375 202.097656 160.609375 187.335938 C 160.609375 172.578125 172.578125 160.613281 187.335938 160.613281 C 202.097656 160.613281 214.0625 172.578125 214.0625 187.335938 C 214.0625 202.097656 202.097656 214.0625 187.335938 214.0625 Z M 187.335938 214.0625 "/>
</g>
<g clip-path="url(#clip8)" clip-rule="nonzero">
<path style=" stroke:none;fill-rule:nonzero;fill:rgb(54.899597%,32.159424%,100%);fill-opacity:1;" d="M 187.492188 158.929688 C 171.957031 158.929688 159.359375 171.527344 159.359375 187.0625 C 159.359375 202.601562 171.957031 215.195312 187.492188 215.195312 C 203.03125 215.195312 215.625 202.601562 215.625 187.0625 C 215.625 171.527344 203.03125 158.929688 187.492188 158.929688 Z M 187.492188 209.335938 C 175.191406 209.335938 165.222656 199.363281 165.222656 187.0625 C 165.222656 174.761719 175.191406 164.792969 187.492188 164.792969 C 199.792969 164.792969 209.765625 174.765625 209.765625 187.0625 C 209.765625 199.363281 199.792969 209.335938 187.492188 209.335938 Z M 187.492188 209.335938 "/>
</g>
<g clip-path="url(#clip9)" clip-rule="nonzero">
<path style=" stroke:none;fill-rule:nonzero;fill:rgb(54.899597%,32.159424%,100%);fill-opacity:1;" d="M 187.207031 164.328125 C 174.570312 164.328125 164.328125 174.570312 164.328125 187.207031 C 164.328125 199.84375 174.570312 210.089844 187.207031 210.089844 C 199.84375 210.089844 210.089844 199.84375 210.089844 187.207031 C 210.089844 174.570312 199.84375 164.328125 187.207031 164.328125 Z M 187.207031 205.324219 C 177.203125 205.324219 169.09375 197.210938 169.09375 187.207031 C 169.09375 177.203125 177.203125 169.09375 187.207031 169.09375 C 197.210938 169.09375 205.320312 177.203125 205.320312 187.207031 C 205.320312 197.210938 197.210938 205.324219 187.207031 205.324219 Z M 187.207031 205.324219 "/>
</g>
<g clip-path="url(#clip10)" clip-rule="nonzero">
<path style=" stroke:none;fill-rule:nonzero;fill:rgb(54.899597%,32.159424%,100%);fill-opacity:1;" d="M 187.445312 167.882812 C 176.878906 167.882812 168.3125 176.449219 168.3125 187.015625 C 168.3125 197.578125 176.878906 206.144531 187.445312 206.144531 C 198.007812 206.144531 206.574219 197.578125 206.574219 187.015625 C 206.574219 176.449219 198.007812 167.882812 187.445312 167.882812 Z M 187.445312 202.160156 C 179.078125 202.160156 172.296875 195.378906 172.296875 187.015625 C 172.296875 178.648438 179.078125 171.871094 187.445312 171.871094 C 195.808594 171.871094 202.589844 178.648438 202.589844 187.015625 C 202.589844 195.378906 195.808594 202.160156 187.445312 202.160156 Z M 187.445312 202.160156 "/>
</g>
</g>
</svg>
