<?xml version="1.0" encoding="UTF-8"?>
<svg xmlns="http://www.w3.org/2000/svg" xmlns:xlink="http://www.w3.org/1999/xlink" width="375pt" height="374.999991pt" viewBox="0 0 375 374.999991" version="1.2">
<defs>
<clipPath id="clip1">
  <path d="M 92.75 92.75 L 282.5 92.75 L 282.5 282.5 L 92.75 282.5 Z M 92.75 92.75 "/>
</clipPath>
</defs>
<g id="surface1">
<g clip-path="url(#clip1)" clip-rule="nonzero">
<path style=" stroke:none;fill-rule:nonzero;fill:rgb(54.899597%,32.159424%,100%);fill-opacity:1;" d="M 187.648438 92.75 C 135.238281 92.75 92.75 135.238281 92.75 187.648438 C 92.75 240.058594 135.238281 282.546875 187.648438 282.546875 C 240.058594 282.546875 282.546875 240.058594 282.546875 187.648438 C 282.546875 135.238281 240.058594 92.75 187.648438 92.75 Z M 187.648438 262.777344 C 146.152344 262.777344 112.519531 229.140625 112.519531 187.648438 C 112.519531 146.15625 146.152344 112.519531 187.648438 112.519531 C 229.140625 112.519531 262.777344 146.15625 262.777344 187.648438 C 262.777344 229.140625 229.140625 262.777344 187.648438 262.777344 Z M 187.648438 262.777344 "/>
</g>
</g>
</svg>
