<?xml version="1.0" encoding="UTF-8"?>
<svg xmlns="http://www.w3.org/2000/svg" xmlns:xlink="http://www.w3.org/1999/xlink" width="375pt" height="374.999991pt" viewBox="0 0 375 374.999991" version="1.2">
<defs>
<clipPath id="clip1">
  <path d="M 69.417969 69.417969 L 305.667969 69.417969 L 305.667969 305.667969 L 69.417969 305.667969 Z M 69.417969 69.417969 "/>
</clipPath>
</defs>
<g id="surface1">
<g clip-path="url(#clip1)" clip-rule="nonzero">
<path style=" stroke:none;fill-rule:nonzero;fill:rgb(54.899597%,32.159424%,100%);fill-opacity:1;" d="M 187.574219 69.417969 C 122.320312 69.417969 69.417969 122.320312 69.417969 187.574219 C 69.417969 252.828125 122.320312 305.726562 187.574219 305.726562 C 252.828125 305.726562 305.726562 252.828125 305.726562 187.574219 C 305.726562 122.320312 252.828125 69.417969 187.574219 69.417969 Z M 187.574219 281.113281 C 135.910156 281.113281 94.035156 239.234375 94.035156 187.574219 C 94.035156 135.914062 135.910156 94.035156 187.574219 94.035156 C 239.234375 94.035156 281.113281 135.914062 281.113281 187.574219 C 281.113281 239.234375 239.234375 281.113281 187.574219 281.113281 Z M 187.574219 281.113281 "/>
</g>
</g>
</svg>
