<?xml version="1.0" encoding="UTF-8"?>
<svg xmlns="http://www.w3.org/2000/svg" xmlns:xlink="http://www.w3.org/1999/xlink" width="375pt" height="374.999991pt" viewBox="0 0 375 374.999991" version="1.2">
<defs>
<clipPath id="clip1">
  <path d="M 168.3125 167.882812 L 206.5625 167.882812 L 206.5625 206.132812 L 168.3125 206.132812 Z M 168.3125 167.882812 "/>
</clipPath>
</defs>
<g id="surface1">
<g clip-path="url(#clip1)" clip-rule="nonzero">
<path style=" stroke:none;fill-rule:nonzero;fill:rgb(54.899597%,32.159424%,100%);fill-opacity:1;" d="M 187.445312 167.882812 C 176.878906 167.882812 168.3125 176.449219 168.3125 187.015625 C 168.3125 197.578125 176.878906 206.144531 187.445312 206.144531 C 198.007812 206.144531 206.574219 197.578125 206.574219 187.015625 C 206.574219 176.449219 198.007812 167.882812 187.445312 167.882812 Z M 187.445312 202.160156 C 179.078125 202.160156 172.296875 195.378906 172.296875 187.015625 C 172.296875 178.648438 179.078125 171.871094 187.445312 171.871094 C 195.808594 171.871094 202.589844 178.648438 202.589844 187.015625 C 202.589844 195.378906 195.808594 202.160156 187.445312 202.160156 Z M 187.445312 202.160156 "/>
</g>
</g>
</svg>
