<?xml version="1.0" encoding="UTF-8"?>
<svg xmlns="http://www.w3.org/2000/svg" xmlns:xlink="http://www.w3.org/1999/xlink" width="375pt" height="374.999991pt" viewBox="0 0 375 374.999991" version="1.2">
<defs>
<clipPath id="clip1">
  <path d="M 164.328125 164.328125 L 210.078125 164.328125 L 210.078125 210.078125 L 164.328125 210.078125 Z M 164.328125 164.328125 "/>
</clipPath>
</defs>
<g id="surface1">
<g clip-path="url(#clip1)" clip-rule="nonzero">
<path style=" stroke:none;fill-rule:nonzero;fill:rgb(54.899597%,32.159424%,100%);fill-opacity:1;" d="M 187.207031 164.328125 C 174.570312 164.328125 164.328125 174.570312 164.328125 187.207031 C 164.328125 199.84375 174.570312 210.089844 187.207031 210.089844 C 199.84375 210.089844 210.089844 199.84375 210.089844 187.207031 C 210.089844 174.570312 199.84375 164.328125 187.207031 164.328125 Z M 187.207031 205.324219 C 177.203125 205.324219 169.09375 197.210938 169.09375 187.207031 C 169.09375 177.203125 177.203125 169.09375 187.207031 169.09375 C 197.210938 169.09375 205.320312 177.203125 205.320312 187.207031 C 205.320312 197.210938 197.210938 205.324219 187.207031 205.324219 Z M 187.207031 205.324219 "/>
</g>
</g>
</svg>
