<?xml version="1.0" encoding="UTF-8"?>
<svg xmlns="http://www.w3.org/2000/svg" xmlns:xlink="http://www.w3.org/1999/xlink" width="375pt" height="374.999991pt" viewBox="0 0 375 374.999991" version="1.2">
<defs>
<clipPath id="clip1">
  <path d="M 159.359375 158.929688 L 215.609375 158.929688 L 215.609375 215.179688 L 159.359375 215.179688 Z M 159.359375 158.929688 "/>
</clipPath>
</defs>
<g id="surface1">
<g clip-path="url(#clip1)" clip-rule="nonzero">
<path style=" stroke:none;fill-rule:nonzero;fill:rgb(54.899597%,32.159424%,100%);fill-opacity:1;" d="M 187.492188 158.929688 C 171.957031 158.929688 159.359375 171.527344 159.359375 187.0625 C 159.359375 202.601562 171.957031 215.195312 187.492188 215.195312 C 203.03125 215.195312 215.625 202.601562 215.625 187.0625 C 215.625 171.527344 203.03125 158.929688 187.492188 158.929688 Z M 187.492188 209.335938 C 175.191406 209.335938 165.222656 199.363281 165.222656 187.0625 C 165.222656 174.761719 175.191406 164.792969 187.492188 164.792969 C 199.792969 164.792969 209.765625 174.765625 209.765625 187.0625 C 209.765625 199.363281 199.792969 209.335938 187.492188 209.335938 Z M 187.492188 209.335938 "/>
</g>
</g>
</svg>
