<?xml version="1.0" encoding="UTF-8"?>
<svg xmlns="http://www.w3.org/2000/svg" xmlns:xlink="http://www.w3.org/1999/xlink" width="375pt" height="374.999991pt" viewBox="0 0 375 374.999991" version="1.2">
<defs>
<clipPath id="clip1">
  <path d="M 153.578125 153.578125 L 221.078125 153.578125 L 221.078125 221.078125 L 153.578125 221.078125 Z M 153.578125 153.578125 "/>
</clipPath>
</defs>
<g id="surface1">
<g clip-path="url(#clip1)" clip-rule="nonzero">
<path style=" stroke:none;fill-rule:nonzero;fill:rgb(54.899597%,32.159424%,100%);fill-opacity:1;" d="M 187.335938 153.578125 C 168.691406 153.578125 153.578125 168.691406 153.578125 187.335938 C 153.578125 205.980469 168.691406 221.09375 187.335938 221.09375 C 205.980469 221.09375 221.09375 205.980469 221.09375 187.335938 C 221.09375 168.691406 205.980469 153.578125 187.335938 153.578125 Z M 187.335938 214.0625 C 172.578125 214.0625 160.609375 202.097656 160.609375 187.335938 C 160.609375 172.578125 172.578125 160.613281 187.335938 160.613281 C 202.097656 160.613281 214.0625 172.578125 214.0625 187.335938 C 214.0625 202.097656 202.097656 214.0625 187.335938 214.0625 Z M 187.335938 214.0625 "/>
</g>
</g>
</svg>
