<?xml version="1.0" encoding="UTF-8"?>
<svg xmlns="http://www.w3.org/2000/svg" xmlns:xlink="http://www.w3.org/1999/xlink" width="375pt" height="374.999991pt" viewBox="0 0 375 374.999991" version="1.2">
<defs>
<clipPath id="clip1">
  <path d="M 145.992188 146.421875 L 228.492188 146.421875 L 228.492188 228.921875 L 145.992188 228.921875 Z M 145.992188 146.421875 "/>
</clipPath>
</defs>
<g id="surface1">
<g clip-path="url(#clip1)" clip-rule="nonzero">
<path style=" stroke:none;fill-rule:nonzero;fill:rgb(54.899597%,32.159424%,100%);fill-opacity:1;" d="M 187.253906 146.421875 C 164.464844 146.421875 145.992188 164.894531 145.992188 187.683594 C 145.992188 210.46875 164.464844 228.941406 187.253906 228.941406 C 210.039062 228.941406 228.511719 210.46875 228.511719 187.683594 C 228.511719 164.894531 210.039062 146.421875 187.253906 146.421875 Z M 187.253906 220.347656 C 169.210938 220.347656 154.589844 205.722656 154.589844 187.683594 C 154.589844 169.640625 169.210938 155.019531 187.253906 155.019531 C 205.292969 155.019531 219.917969 169.644531 219.917969 187.683594 C 219.917969 205.722656 205.292969 220.347656 187.253906 220.347656 Z M 187.253906 220.347656 "/>
</g>
</g>
</svg>
