<?xml version="1.0" encoding="UTF-8"?>
<svg xmlns="http://www.w3.org/2000/svg" xmlns:xlink="http://www.w3.org/1999/xlink" width="375pt" height="374.999991pt" viewBox="0 0 375 374.999991" version="1.2">
<defs>
<clipPath id="clip1">
  <path d="M 137.832031 137.832031 L 236.832031 137.832031 L 236.832031 236.832031 L 137.832031 236.832031 Z M 137.832031 137.832031 "/>
</clipPath>
</defs>
<g id="surface1">
<g clip-path="url(#clip1)" clip-rule="nonzero">
<path style=" stroke:none;fill-rule:nonzero;fill:rgb(54.899597%,32.159424%,100%);fill-opacity:1;" d="M 187.347656 137.832031 C 160.003906 137.832031 137.832031 160.003906 137.832031 187.347656 C 137.832031 214.691406 160.003906 236.859375 187.347656 236.859375 C 214.691406 236.859375 236.859375 214.691406 236.859375 187.347656 C 236.859375 160.003906 214.691406 137.832031 187.347656 137.832031 Z M 187.347656 226.542969 C 165.699219 226.542969 148.148438 208.996094 148.148438 187.347656 C 148.148438 165.699219 165.699219 148.148438 187.347656 148.148438 C 208.996094 148.148438 226.542969 165.699219 226.542969 187.347656 C 226.542969 208.996094 208.996094 226.542969 187.347656 226.542969 Z M 187.347656 226.542969 "/>
</g>
</g>
</svg>
