<?xml version="1.0" encoding="UTF-8"?>
<svg xmlns="http://www.w3.org/2000/svg" xmlns:xlink="http://www.w3.org/1999/xlink" width="375pt" height="374.999991pt" viewBox="0 0 375 374.999991" version="1.2">
<defs>
<clipPath id="clip1">
  <path d="M 126.242188 125.8125 L 248.492188 125.8125 L 248.492188 248.0625 L 126.242188 248.0625 Z M 126.242188 125.8125 "/>
</clipPath>
</defs>
<g id="surface1">
<g clip-path="url(#clip1)" clip-rule="nonzero">
<path style=" stroke:none;fill-rule:nonzero;fill:rgb(54.899597%,32.159424%,100%);fill-opacity:1;" d="M 187.382812 125.8125 C 153.613281 125.8125 126.242188 153.1875 126.242188 186.953125 C 126.242188 220.71875 153.613281 248.09375 187.382812 248.09375 C 221.148438 248.09375 248.523438 220.71875 248.523438 186.953125 C 248.523438 153.1875 221.148438 125.8125 187.382812 125.8125 Z M 187.382812 235.355469 C 160.648438 235.355469 138.976562 213.683594 138.976562 186.953125 C 138.976562 160.21875 160.648438 138.550781 187.382812 138.550781 C 214.113281 138.550781 235.785156 160.21875 235.785156 186.953125 C 235.785156 213.683594 214.113281 235.355469 187.382812 235.355469 Z M 187.382812 235.355469 "/>
</g>
</g>
</svg>
