<?xml version="1.0" encoding="UTF-8"?>
<svg xmlns="http://www.w3.org/2000/svg" xmlns:xlink="http://www.w3.org/1999/xlink" width="375pt" height="374.999991pt" viewBox="0 0 375 374.999991" version="1.2">
<defs>
<clipPath id="clip1">
  <path d="M 110.925781 110.496094 L 263.925781 110.496094 L 263.925781 263.496094 L 110.925781 263.496094 Z M 110.925781 110.496094 "/>
</clipPath>
</defs>
<g id="surface1">
<g clip-path="url(#clip1)" clip-rule="nonzero">
<path style=" stroke:none;fill-rule:nonzero;fill:rgb(54.899597%,32.159424%,100%);fill-opacity:1;" d="M 187.445312 110.496094 C 145.1875 110.496094 110.925781 144.757812 110.925781 187.015625 C 110.925781 229.277344 145.1875 263.535156 187.445312 263.535156 C 229.707031 263.535156 263.964844 229.277344 263.964844 187.015625 C 263.964844 144.757812 229.707031 110.496094 187.445312 110.496094 Z M 187.445312 247.59375 C 153.988281 247.59375 126.867188 220.472656 126.867188 187.015625 C 126.867188 153.558594 153.988281 126.4375 187.445312 126.4375 C 220.902344 126.4375 248.023438 153.558594 248.023438 187.015625 C 248.023438 220.472656 220.902344 247.59375 187.445312 247.59375 Z M 187.445312 247.59375 "/>
</g>
</g>
</svg>
